<svg xmlns="http://www.w3.org/2000/svg"
     width="32" height="32" viewBox="0 0 24 24"
     fill="none"
     stroke="#A7F3D0"
     stroke-width="1.5"
     stroke-linecap="round"
     stroke-linejoin="round">
  <path d="M9 3a2 2 0 0 1 2 2v6a2 2 0 0 1 -2 2h-4a2 2 0 0 1 -2 -2v-6a2 2 0 0 1 2 -2z" />
  <path d="M9 15a2 2 0 0 1 2 2v2a2 2 0 0 1 -2 2h-4a2 2 0 0 1 -2 -2v-2a2 2 0 0 1 2 -2z" />
  <path d="M19 11a2 2 0 0 1 2 2v6a2 2 0 0 1 -2 2h-4a2 2 0 0 1 -2 -2v-6a2 2 0 0 1 2 -2z" />
  <path d="M19 3a2 2 0 0 1 2 2v2a2 2 0 0 1 -2 2h-4a2 2 0 0 1 -2 -2v-2a2 2 0 0 1 2 -2z" />
</svg>
